<svg xmlns="http://www.w3.org/2000/svg" id="CSS" viewBox="0 0 16 16"><defs><style>.cls-1{fill:#161a1c}</style></defs><path d="m13.97 10.34-2.93-8.88c-.13-.44-.21-.69-.39-.91-.16-.2-.37-.35-.6-.44C9.78 0 9.53 0 9.06 0h-1.9c-.46 0-.72 0-.99.11-.24.09-.44.25-.6.44-.18.22-.26.47-.38.89l-3.16 8.89c-.07.19-.01.41.14.54s.37.16.56.07l.36-.19c.93-.49 2.09-1.1 3-1.26a.48.48 0 0 0 .38-.32L8 4.96l1.53 4.21c.06.17.21.29.38.32.91.16 2.08.77 3.02 1.27l.34.18c.07.04.15.06.23.06.12 0 .23-.04.32-.12.16-.13.21-.34.15-.54m-3.59-1.76L8.47 3.33c-.14-.39-.8-.39-.94 0L5.62 8.58c-.72.17-1.51.53-2.23.9l2.75-7.73c.09-.3.15-.5.21-.58.05-.06.12-.11.19-.14.09-.03.3-.03.61-.03h1.9c.33 0 .53 0 .61.04.07.03.14.08.19.14.06.07.12.26.21.57s0 .01 0 .01l2.55 7.72c-.73-.37-1.53-.73-2.26-.91Z" class="cls-1"/><path d="M10.55 10.78c-.16-.05-.33 0-.46.1-.29.25-1.01.49-1.96.49-1.13 0-1.93-.36-2.07-.62a.49.49 0 0 0-.48-.26c-.2.02-.37.15-.43.34-.13.38-.14.78-.14.96 0 .05-.07 1.27.81 2.15.14.14.36.18.54.11.19-.08.31-.26.31-.46 0-.1.08-.18.19-.18h.09c.05.07.05.36.05.55 0 .88.53 1.66 1.34 1.99.06.03.13.04.19.04.14 0 .27-.06.37-.16.14-.15.17-.38.08-.56a.86.86 0 0 1-.09-.39c0-.36.16-.48.62-.77.39-.24.87-.55 1.2-1.16.19-.34.29-.73.29-1.13 0-.25-.04-.49-.11-.72a.51.51 0 0 0-.34-.33Zm-.72 1.7c-.21.39-.53.59-.87.8s-.74.46-.94.92q-.03-.135-.03-.27c0-.37 0-.87-.34-1.21-.2-.2-.47-.3-.8-.3-.27 0-.51.09-.71.24-.11-.28-.13-.54-.14-.69.55.27 1.29.42 2.13.42.69 0 1.33-.11 1.85-.31-.03.14-.07.28-.14.41Z" class="cls-1"/></svg>