<svg xmlns="http://www.w3.org/2000/svg" id="CSS" viewBox="0 0 16 16"><defs><style>.cls-1{fill:#161a1c}</style></defs><path d="M13.69.5H5.85c-.63 0-1.45.66-1.68.86L1.34 3.69s-.02.03-.03.04c-.46.37-.8.92-.8 1.47v8.4c0 .92.98 1.9 1.9 1.9h8.4c.52 0 1.04-.31 1.41-.74 0 0 .02-.01.03-.02l.08-.1s.02-.02.03-.04l2.37-3.1c.49-.54.77-1.23.78-1.97V2.31c0-.9-.91-1.81-1.81-1.81ZM11.7 13.6c0 .38-.52.9-.9.9H2.4c-.38 0-.9-.52-.9-.9V5.2c0-.38.52-.9.9-.9h8.4c.38 0 .9.52.9.9zm2.8-4.09c-.01.48-.2.95-.55 1.34l-1.25 1.64V5.2c0-.92-.98-1.9-1.9-1.9H3.39l1.43-1.17c.37-.32.88-.62 1.04-.63h7.84c.35 0 .81.46.81.81v7.2Z" class="cls-1"/><path d="M4.45 8.03h.56c.34 0 .62.3.62.67 0 .28.22.5.5.5s.5-.22.5-.5c0-.84-.61-1.54-1.4-1.65V6.6c0-.28-.22-.5-.5-.5s-.5.22-.5.5v.45c-.79.11-1.4.81-1.4 1.65 0 .92.73 1.67 1.62 1.67h.56c.34 0 .62.3.62.67s-.28.67-.62.67h-.56c-.34 0-.62-.3-.62-.67 0-.28-.22-.5-.5-.5s-.5.22-.5.5c0 .84.61 1.54 1.4 1.65v.45c0 .28.22.5.5.5s.5-.22.5-.5v-.45c.79-.11 1.4-.81 1.4-1.65 0-.92-.73-1.67-1.62-1.67h-.56c-.34 0-.62-.3-.62-.67s.28-.67.62-.67m5.88 4.11h-2.6c-.28 0-.5.22-.5.5s.22.5.5.5h2.6c.28 0 .5-.22.5-.5s-.22-.5-.5-.5" class="cls-1"/></svg>