<svg xmlns="http://www.w3.org/2000/svg" id="CSS" viewBox="0 0 16 16"><defs><style>.cls-1{fill:#161a1c}</style></defs><path d="M14.53 10.77h-.43v-.9a1.9 1.9 0 1 0-3.8 0v.9h-.43a.97.97 0 0 0-.97.97v2.8c0 .53.43.97.97.97h4.67c.53 0 .97-.43.97-.97v-2.8a.97.97 0 0 0-.97-.97Zm-3.23-.9c0-.5.4-.9.9-.9s.9.4.9.9v.9h-1.8zm-1.4 4.66-.03-2.77h4.63l.03 2.73-4.63.03Z" class="cls-1"/><path d="M7.53 11.7c-1.01 0-6.03-.22-6.03-4.63 0-2.32 2.03-4.18 6.03-5.54 4 1.36 6.03 3.22 6.03 5.54 0 .28.22.5.5.5s.5-.22.5-.5c0-2.82-2.31-5.03-6.88-6.54a.55.55 0 0 0-.31 0C2.81 2.04.5 4.24.5 7.07c0 4.16 3.79 5.63 7.03 5.63.28 0 .5-.22.5-.5s-.22-.5-.5-.5" class="cls-1"/><path d="M7.53 9.9q1.14 0 2.22-1.08c.14-.14.19-.36.11-.55a.5.5 0 0 0-.46-.31H5.67a.499.499 0 0 0-.35.85Q6.4 9.89 7.54 9.89Z" class="cls-1"/><circle cx="5.2" cy="6.13" r=".97" class="cls-1"/><path d="M10.83 6.13a.97.97 0 1 0-1.942.002.97.97 0 0 0 1.942-.002" class="cls-1"/></svg>