<svg xmlns="http://www.w3.org/2000/svg" id="CSS" viewBox="0 0 16 16"><defs><style>.cls-1{fill:#161a1c}</style></defs><path d="M8.16 1.03a.6.6 0 0 0-.32 0C2.64 2.76 0 5.27 0 8.5 0 14.82 7.18 15 8 15s8-.18 8-6.5c0-3.23-2.64-5.74-7.84-7.47M8 14c-.72 0-7-.15-7-5.5 0-2.72 2.36-4.89 7-6.47 4.64 1.58 7 3.76 7 6.47 0 5.35-6.28 5.5-7 5.5" class="cls-1"/><path d="M9.5 10h-3a.49.49 0 0 0-.42.24c-.09.15-.1.33-.02.48.41.84 1.09 1.28 1.95 1.28s1.54-.44 1.95-1.28c.08-.15.07-.34-.02-.48a.49.49 0 0 0-.42-.24ZM5 7c-.55 0-1 .45-1 1s.45 1 1 1 1-.45 1-1-.45-1-1-1m0 1.5V8zM11 7c-.55 0-1 .45-1 1s.45 1 1 1 1-.45 1-1-.45-1-1-1m0 1.5V8z" class="cls-1"/></svg>