<svg xmlns="http://www.w3.org/2000/svg" viewBox="0 0 16 16"><path d="M14.5 10.5H14v-1c0-1.1-.9-2-2-2s-2 .9-2 2v1h-.5c-.56 0-1 .44-1 1v3c0 .55.45 1 1 1h5c.55 0 1-.45 1-1v-3c0-.55-.45-1-1-1m-3.5-1c0-.55.45-1 1-1s1 .45 1 1v1h-2zm3.5 5h-5v-3h5zM8 9.5h-.5v-2H10c.28 0 .5-.22.5-.5V1c0-.28-.22-.5-.5-.5H1C.72.5.5.72.5 1v3c0 .28.22.5.5.5h2.5v2H1c-.28 0-.5.22-.5.5v3c0 .28.22.5.5.5h7c.28 0 .5-.22.5-.5s-.22-.5-.5-.5m-1.5 0h-2v-2h2zm1-8h2v2h-2zm2 3v2h-2v-2zm-3-1h-2v-2h2zm-5-2h2v2h-2zm3 3h2v2h-2zm-3 3h2v2h-2z" style="fill:#161a1c"/></svg>