<svg xmlns="http://www.w3.org/2000/svg" id="CSS" viewBox="0 0 16 16"><defs><style>.cls-1{fill:#161a1c}</style></defs><path d="M12.46 15H3.54C2.14 15 1 13.86 1 12.46V1.45c0-.25.2-.45.45-.45h11.01C13.86 1 15 2.14 15 3.54v8.91c0 1.4-1.14 2.54-2.54 2.54ZM1.89 1.89v10.57c0 .91.74 1.65 1.65 1.65h8.91c.91 0 1.65-.74 1.65-1.65V3.54c0-.91-.74-1.65-1.65-1.65z" class="cls-1"/><path d="M12.15 13.5c-.42 0-.75-.12-.98-.37-.22-.25-.34-.61-.35-1.07h.92c0 .41.15.62.43.62.14 0 .25-.05.31-.14s.09-.24.09-.43q0-.24-.12-.39a1 1 0 0 0-.39-.28l-.34-.16c-.3-.14-.52-.32-.66-.51-.13-.2-.2-.48-.2-.83 0-.4.12-.72.35-.97.24-.25.56-.37.97-.37s.7.12.92.36.34.59.35 1.05h-.88a.9.9 0 0 0-.09-.43c-.05-.1-.15-.15-.29-.15-.26 0-.39.15-.39.46 0 .16.03.28.09.37.09.1.21.18.33.23l.32.14c.34.15.58.34.73.57s.22.53.22.91c0 .45-.12.8-.36 1.04s-.57.37-1 .37Zm-2.96 0c-.42 0-.75-.12-.98-.37-.22-.25-.34-.61-.35-1.07h.91c0 .41.15.62.43.62.14 0 .25-.05.3-.14.06-.09.09-.24.09-.43 0-.16-.04-.29-.11-.39a1 1 0 0 0-.39-.28l-.34-.16c-.3-.14-.52-.32-.66-.51-.13-.2-.2-.48-.2-.83 0-.4.12-.72.35-.97.24-.25.56-.37.97-.37s.7.12.92.36.34.59.35 1.05H9.6a.9.9 0 0 0-.09-.43c-.05-.1-.15-.15-.29-.15-.26 0-.39.15-.39.46 0 .16.03.28.09.37.09.1.21.18.33.23l.32.14c.34.15.58.34.73.57s.22.53.22.91c0 .45-.12.8-.36 1.04s-.57.37-1 .37Zm-3.07 0c-.42 0-.75-.11-.99-.34-.24-.22-.37-.56-.37-1.01V9.94c0-.44.13-.78.39-1.01s.6-.34 1.03-.34.74.12.98.35c.24.24.37.58.37 1.05v.17h-.97v-.17c0-.18-.04-.31-.12-.4a.35.35 0 0 0-.28-.14c-.16 0-.27.05-.33.16-.07.15-.1.32-.09.48v1.92c0 .4.14.6.42.61.13 0 .23-.05.3-.14.07-.12.11-.26.1-.4v-.14h.97v.15q0 .465-.18.78c-.12.2-.29.37-.5.47-.22.11-.47.16-.72.15Z" class="cls-1"/></svg>