<svg xmlns="http://www.w3.org/2000/svg" viewBox="0 0 16 16"><path d="M8 1C4.14 1 1 4.14 1 8s3.14 7 7 7 7-3.14 7-7-3.14-7-7-7m1.67 12.76s0-.06-.01-.08L8.6 9.44a.5.5 0 0 0-.47-.38C6.46 9 5 8.05 5 7.03 5 5.93 6.42 5 8.11 5c1.82 0 2.52.63 3.15 1.85.05.13.45 1.43 1.11 3.6l.33 1.06s.04.1.07.14a6.03 6.03 0 0 1-3.09 2.11Zm3.65-3.6q-1.13-3.68-1.15-3.71C11.29 4.69 10.16 4 8.11 4 5.84 4 4 5.36 4 7.03c0 1.5 1.63 2.79 3.71 3l.97 3.89s0 .03.01.04A6.005 6.005 0 0 1 1.99 8c0-3.31 2.69-6 6-6a6.005 6.005 0 0 1 5.44 8.54l-.12-.38Z" style="fill:#161a1c"/></svg>