<svg xmlns="http://www.w3.org/2000/svg" id="CSS" viewBox="0 0 16 16"><defs><style>.cls-1{fill:#161a1c}</style></defs><path d="M12 1H4C2.35 1 1 2.35 1 4v8c0 1.65 1.35 3 3 3h8c1.65 0 3-1.35 3-3V4c0-1.65-1.35-3-3-3m2 11c0 1.1-.9 2-2 2H4c-1.1 0-2-.9-2-2V4c0-1.1.9-2 2-2h8c1.1 0 2 .9 2 2z" class="cls-1"/><path d="M5.13 8.83c.28 0 .5-.22.5-.5s-.22-.5-.5-.5H2.97c-.28 0-.5.22-.5.5v3.63c0 .28.22.5.5.5h2.16c.28 0 .5-.22.5-.5s-.22-.5-.5-.5H3.47v-.81h.58c.28 0 .5-.22.5-.5s-.22-.5-.5-.5h-.58v-.81h1.66Zm3.55-1c-.28 0-.5.22-.5.5v1.76L7.02 8.08a.486.486 0 0 0-.56-.23c-.22.06-.37.26-.37.48v3.63c0 .28.22.5.5.5s.5-.22.5-.5V10.2l1.16 2.01c.09.16.26.25.43.25.04 0 .09 0 .13-.02.22-.06.37-.26.37-.48V8.33c0-.28-.22-.5-.5-.5m4.1.31-1.04 2.55-1.15-2.56a.5.5 0 0 0-.66-.25c-.25.11-.37.41-.25.66l1.62 3.63a.499.499 0 0 0 .92-.01l1.49-3.63c.1-.26-.02-.55-.27-.65s-.55.02-.65.27Z" class="cls-1"/></svg>