<svg xmlns="http://www.w3.org/2000/svg" viewBox="0 0 16 16"><path d="M15.29 6.59 9.41.71c-.78-.78-2.05-.78-2.83 0L5.14 2.15.71 6.59c-.78.78-.78 2.05 0 2.83l5.88 5.88c.39.39.9.58 1.41.58s1.02-.19 1.41-.58l5.88-5.88c.78-.78.78-2.05 0-2.83m-.7 2.12-5.88 5.88a.996.996 0 0 1-1.41 0L1.41 8.71a.996.996 0 0 1 0-1.41L5.5 3.21l.65.65c-.09.2-.15.42-.15.65 0 .65.42 1.21 1 1.41v3.17c-.58.21-1 .76-1 1.41 0 .83.67 1.5 1.5 1.5A1.498 1.498 0 0 0 8 9.09V5.92l.15-.06 1 1c-.09.2-.15.42-.15.65 0 .83.67 1.5 1.5 1.5s1.5-.67 1.5-1.5a1.498 1.498 0 0 0-2.15-1.35l-1-1c.09-.2.15-.42.15-.65a1.498 1.498 0 0 0-2.15-1.35l-.65-.65 1.09-1.09c.19-.19.45-.29.71-.29s.51.1.71.29l5.88 5.88c.39.39.39 1.02 0 1.41M7.5 10c.28 0 .5.22.5.5s-.22.5-.5.5-.5-.22-.5-.5.22-.5.5-.5M7 4.5c0-.28.22-.5.5-.5s.5.22.5.5-.22.5-.5.5-.5-.22-.5-.5m3 3c0-.28.22-.5.5-.5s.5.22.5.5-.22.5-.5.5-.5-.22-.5-.5" style="fill:#161a1c"/></svg>