<svg xmlns="http://www.w3.org/2000/svg" id="CSS" viewBox="0 0 16 16"><defs><style>.cls-1{fill:#161a1c}</style></defs><path d="M8 15.25c-.06 0-.13-.01-.19-.04l-5-2a.5.5 0 0 1-.31-.4L1 1.31a.497.497 0 0 1 .5-.56h13c.14 0 .28.06.38.17.09.11.14.25.12.39l-1.5 11.5c-.02.18-.14.33-.31.4l-5 2c-.06.02-.12.04-.19.04m-4.54-2.86L8 14.21l4.54-1.82 1.39-10.64H2.07z" class="cls-1"/><path d="M8 11.75c-.06 0-.13-.01-.19-.04l-2.5-1a.48.48 0 0 1-.31-.42l-.08-1a.503.503 0 0 1 1-.08l.06.69 2.03.81 2.03-.81.18-2.15H5.26c-.26 0-.48-.2-.5-.46l-.25-3a.52.52 0 0 1 .13-.38c.09-.1.23-.16.37-.16h6c.28 0 .5.22.5.5s-.22.5-.5.5H5.55l.17 2h5.04c.14 0 .27.06.37.16.09.1.14.24.13.38l-.25 3a.51.51 0 0 1-.31.42l-2.5 1c-.06.02-.12.04-.19.04Z" class="cls-1"/></svg>