<svg xmlns="http://www.w3.org/2000/svg" id="CSS" viewBox="0 0 16 16"><defs><style>.cls-1{fill:#161a1c}</style></defs><path d="M10.7 8h.6c.39 0 .7.34.7.75 0 .28.22.5.5.5s.5-.22.5-.5C13 7.79 12.24 7 11.3 7h-.6C9.76 7 9 7.79 9 8.75s.76 1.75 1.7 1.75h.6c.39 0 .7.34.7.75s-.31.75-.7.75h-.6c-.39 0-.7-.34-.7-.75 0-.28-.22-.5-.5-.5s-.5.22-.5.5c0 .96.76 1.75 1.7 1.75h.6c.94 0 1.7-.79 1.7-1.75s-.76-1.75-1.7-1.75h-.6c-.39 0-.7-.34-.7-.75s.31-.75.7-.75M7.5 7c-.28 0-.5.22-.5.5V11c0 .55-.45 1-1 1s-1-.45-1-1c0-.28-.22-.5-.5-.5s-.5.22-.5.5c0 1.1.9 2 2 2s2-.9 2-2V7.5c0-.28-.22-.5-.5-.5" class="cls-1"/><path d="M12 1H4C2.35 1 1 2.35 1 4v8c0 1.65 1.35 3 3 3h8c1.65 0 3-1.35 3-3V4c0-1.65-1.35-3-3-3m2 11c0 1.1-.9 2-2 2H4c-1.1 0-2-.9-2-2V4c0-1.1.9-2 2-2h8c1.1 0 2 .9 2 2z" class="cls-1"/></svg>