<svg xmlns="http://www.w3.org/2000/svg" id="CSS" viewBox="0 0 16 16"><defs><style>.cls-1{fill:#161a1c}</style></defs><path d="M7.38 5.02a.49.49 0 0 0-.56.19L5.01 7.8 3.2 5.21a.49.49 0 0 0-.56-.19c-.21.07-.35.26-.35.48v5c0 .28.22.5.5.5s.5-.22.5-.5V7.09L4.6 8.97a.507.507 0 0 0 .82 0l1.31-1.88v3.41c0 .28.22.5.5.5s.5-.22.5-.5v-5c0-.22-.14-.41-.35-.48m5.51 3.25-1.33 1.14V5.5c0-.28-.22-.5-.5-.5s-.5.22-.5.5v3.92L9.22 8.27a.506.506 0 0 0-.71.05c-.18.21-.16.52.05.7l2.16 1.85a.516.516 0 0 0 .66 0l2.16-1.85c.21-.18.23-.5.05-.71a.505.505 0 0 0-.71-.05Z" class="cls-1"/><path d="M14 2.32H2c-.83 0-1.5.67-1.5 1.5v8.36c0 .83.67 1.5 1.5 1.5h12c.83 0 1.5-.67 1.5-1.5V3.82c0-.83-.67-1.5-1.5-1.5m.5 9.86c0 .28-.22.5-.5.5H2c-.28 0-.5-.22-.5-.5V3.82c0-.28.22-.5.5-.5h12c.28 0 .5.22.5.5z" class="cls-1"/></svg>