<svg xmlns="http://www.w3.org/2000/svg" id="CSS" viewBox="0 0 16 16"><defs><style>.cls-1{fill:#161a1c}</style></defs><path d="M8.01 15c-.13 0-.27 0-.4-.01-1.87-.1-3.58-.93-4.83-2.32S.9 9.48 1.01 7.61s.93-3.58 2.32-4.83a6.9 6.9 0 0 1 5.06-1.77c1.87.1 3.58.93 4.83 2.32a6.99 6.99 0 0 1 1.12 7.64.504.504 0 0 1-.91-.43c1.03-2.18.65-4.75-.96-6.55A6 6 0 0 0 8.33 2c-1.6-.1-3.14.45-4.33 1.52a6 6 0 0 0-1.99 4.14c-.09 1.6.45 3.14 1.52 4.33a6 6 0 0 0 4.14 1.99c1.59.09 3.14-.45 4.33-1.52.2-.18.52-.17.71.04.18.21.17.52-.04.71a6.92 6.92 0 0 1-4.66 1.78Z" class="cls-1"/><path d="M12.33 13.35c-.14 0-.29-.06-.39-.18L6 5.9v5.6c0 .28-.22.5-.5.5s-.5-.22-.5-.5v-7a.496.496 0 0 1 .88-.32l6.83 8.35c.17.21.14.53-.07.7a.48.48 0 0 1-.32.11ZM10.5 8c-.28 0-.5-.22-.5-.5v-3c0-.28.22-.5.5-.5s.5.22.5.5v3c0 .28-.22.5-.5.5" class="cls-1"/></svg>