<svg xmlns="http://www.w3.org/2000/svg" id="CSS" viewBox="0 0 16 16"><defs><style>.cls-1{fill:#161a1c}</style></defs><path d="M14.7 3.82 8.25.07a.5.5 0 0 0-.5 0L1.29 3.78c-.16.09-.25.25-.25.43v7.54c0 .18.1.34.25.43l2.73 1.57c.11.06.23.08.35.06.64-.13 1.84-.74 1.84-2.06V5.36c0-.28-.22-.5-.5-.5s-.5.22-.5.5v6.39c0 .64-.58.93-.88 1.03l-2.3-1.32V4.5L8 1.08l5.95 3.46v6.99l-5.96 3.39-1.81-1.04a.505.505 0 0 0-.68.19c-.14.24-.05.54.19.68l2.06 1.18c.08.04.16.07.25.07s.17-.02.25-.07l6.46-3.68c.16-.09.25-.25.25-.43V4.25c0-.18-.09-.34-.25-.43Z" class="cls-1"/><path d="M10.35 10.39h-.79c-.59 0-1.06-.4-1.06-.88 0-.28-.22-.5-.5-.5s-.5.22-.5.5c0 1.04.93 1.88 2.06 1.88h.79c1.14 0 2.06-.84 2.06-1.88s-.93-1.88-2.06-1.88h-.79c-.59 0-1.06-.4-1.06-.88s.48-.88 1.06-.88h.79c.59 0 1.06.4 1.06.88 0 .28.22.5.5.5s.5-.22.5-.5c0-1.04-.93-1.88-2.06-1.88h-.79c-1.14 0-2.06.84-2.06 1.88s.93 1.88 2.06 1.88h.79c.59 0 1.06.4 1.06.88s-.48.88-1.06.88" class="cls-1"/></svg>