<svg xmlns="http://www.w3.org/2000/svg" viewBox="0 0 16 16"><path d="M14.99 2.98c0-.07-.02-.15-.06-.22 0 0-.01-.01-.01-.02-.01-.02-.03-.03-.04-.05a.5.5 0 0 0-.15-.13c-.01 0-.02-.02-.03-.03l-3.5-1.5a.53.53 0 0 0-.41 0l-6.5 3s-.02.02-.03.02c-.06.03-.12.08-.16.14 0 .01-.02.02-.03.03l-.01.01c-.04.07-.06.15-.06.23v.71L1.28 6.52s-.04.04-.07.06c-.02.01-.03.03-.05.05-.04.04-.07.07-.09.11-.04.07-.05.14-.06.21v4.03c0 .18.1.35.26.44l6.5 3.5a.5.5 0 0 0 .48 0l6.5-3.5c.16-.09.26-.26.26-.44v-8Zm-7.11.51 2.59 1.11-2.46 1.33-2.42-1.38zM5 5.5v-.14l2.5 1.43v2.87L5 8.31V5.49ZM4 7.78l-1.43-.77L4 6.3v1.47Zm1 1.67 2.5 1.35v2.86L5 12.31zm3.5 1.35L11 9.45v2.86l-2.5 1.35v-2.87Zm0-1.14V6.8L11 5.45v2.86zM12 4.91l2-1.08v2.86l-2 1.08zm-.99-2.86 2.34 1-1.76.95L9.1 2.93zM2 7.84l2 1.08v2.86L2 10.7zm10 3.94V8.92l2-1.08v2.86z" style="fill:#161a1c"/></svg>