<svg xmlns="http://www.w3.org/2000/svg" id="CSS" viewBox="0 0 16 16"><defs><style>.cls-1{fill:#161a1c}</style></defs><path d="m14.63 9.23-.17-.09c-.21-.1-.53-.27-.67-.39.09-.19.33-.53.48-.74.45-.62.87-1.2.65-1.78-.22-.59-.86-.53-1.53-.47-.22.02-.58.05-.75.02.01-.22.12-.65.18-.92.19-.81.38-1.57-.02-1.98-.4-.4-.95 0-1.53.41-.2.14-.51.36-.67.43-.06-.2-.12-.64-.15-.92-.1-.84-.2-1.64-.71-1.78-.49-.14-.85.5-1.23 1.19-.13.24-.34.63-.47.77-.13-.14-.34-.53-.47-.77-.38-.69-.73-1.34-1.23-1.19-.5.14-.6.94-.71 1.78-.03.28-.09.71-.15.92-.17-.06-.48-.29-.67-.43-.58-.42-1.13-.81-1.53-.41s-.22 1.17-.03 1.98c.07.27.17.7.18.92-.17.03-.52 0-.75-.02-.67-.06-1.3-.11-1.53.47-.22.58.2 1.16.65 1.78.15.21.4.55.48.74-.14.12-.46.28-.67.39-.13.06-.26.13-.38.2-.13.07-.22.23-.24.42-.01.18.06.36.18.46.57.48 1.17.88 1.78 1.23-.26.72-.24 1.51.11 2.21.42.84 1.19 1.34 2.06 1.34h.63c.24 0 .44-.22.44-.48v-1.14c0-.27-.2-.48-.44-.48s-.44.22-.44.48v.66h-.2c-.55 0-1.03-.32-1.3-.85-.21-.42-.24-.91-.09-1.34 1.33.61 2.73.92 4.12.92 1.46 0 2.93-.34 4.32-1.01.18.46.17.98-.06 1.43-.27.53-.75.85-1.3.85h-.2v-.66c0-.27-.2-.48-.44-.48s-.44.22-.44.48v1.14c0 .27.2.48.44.48h.63c.87 0 1.64-.5 2.06-1.34.37-.73.38-1.57.07-2.32.59-.35 1.17-.75 1.72-1.23.12-.1.19-.28.17-.47-.02-.18-.11-.34-.25-.41Zm-1 .56c-3.5 2.6-7.81 2.64-11.34.1.42-.23.74-.47.82-.89.1-.54-.27-1.06-.71-1.65-.12-.17-.31-.42-.41-.61.19-.01.46.01.65.03.63.05 1.18.1 1.45-.33s.12-1.09-.07-1.86c-.05-.23-.13-.56-.17-.79.17.09.41.26.57.38.55.4 1.03.74 1.43.5.39-.24.48-.92.57-1.7.03-.24.07-.58.12-.81.12.17.27.45.37.64.37.67.68 1.24 1.13 1.24s.76-.58 1.13-1.24c.1-.19.25-.46.37-.64.05.23.09.58.12.81.1.78.18 1.46.57 1.7.4.24.88-.1 1.43-.5.16-.12.4-.29.57-.38-.03.23-.11.56-.17.79-.18.77-.34 1.43-.07 1.86s.82.39 1.45.33c.19-.01.46-.04.65-.03-.11.19-.29.44-.41.61-.43.59-.8 1.11-.71 1.65.06.36.31.59.64.79Z" class="cls-1"/><path d="M10.59 6.4c-.71 0-1.28.63-1.28 1.41s.57 1.41 1.28 1.41 1.28-.63 1.28-1.41-.57-1.41-1.28-1.41m0 1.86c-.22 0-.41-.2-.41-.45s.18-.45.41-.45.4.2.4.45-.18.45-.4.45M5.41 6.4c-.7 0-1.28.63-1.28 1.41s.57 1.41 1.28 1.41 1.28-.63 1.28-1.41S6.12 6.4 5.41 6.4m0 1.86c-.22 0-.4-.2-.4-.45s.18-.45.4-.45.41.2.41.45-.18.45-.41.45" class="cls-1"/></svg>