<svg xmlns="http://www.w3.org/2000/svg" viewBox="0 0 16 16"><path d="M13.27 7.04c.07-.09 1.57-2.29.06-4.47C11.83.68 9.99.83 9.2 1.19c-.14.07-3.34 1.78-5.17 3.02-1.2.86-2.6 2.28-1.29 4.79 0 0-.01 0-.02.01-.07.09-1.57 2.29-.08 4.44.83 1.21 2.04 1.56 3.03 1.56.43 0 .82-.07 1.12-.16.14-.07 3.34-1.77 5.17-3.02 1.2-.86 2.6-2.28 1.29-4.79 0 0 .01 0 .02-.02Zm-1.88 3.99c-1.77 1.2-4.99 2.91-4.97 2.91-.08.03-1.87.52-2.95-1.05-.84-1.21-.37-2.46-.09-3.01.7.68 1.64.93 2.49.99l-.62.38a.49.49 0 0 0-.16.69.507.507 0 0 0 .69.17l4.14-2.55a.49.49 0 0 0 .16-.69.495.495 0 0 0-.69-.16L7.75 9.72c-.03 0-3.01.76-4.02-.97-1.04-1.81-.4-2.8.88-3.71C6.39 3.83 9.64 2.1 9.64 2.09c.06-.03 1.53-.63 2.89 1.08.84 1.21.37 2.45.09 3.01-.69-.67-1.61-.92-2.45-.98l.54-.33c.24-.15.31-.45.16-.69a.49.49 0 0 0-.69-.16l-2.26 1.4s-.08.04-.11.07L6.04 6.58c-.24.15-.31.45-.16.69.14.24.45.31.69.16l1.76-1.09c.48-.11 3.02-.59 3.94.99 1.04 1.81.4 2.8-.88 3.71Z" style="fill:#161a1c"/></svg>