<svg xmlns="http://www.w3.org/2000/svg" viewBox="0 0 16 16"><path d="M8 14c-2.08 0-3.09-1.13-3.82-1.96-.42-.48-.76-.86-1.18-.98-.49-.13-1.25-.17-2.08 1.05-.14.2-.39.27-.61.18a.505.505 0 0 1-.29-.57C.71 8.65 2.71 8 4.26 8c2.08 0 3.09 1.13 3.82 1.96.44.49.76.86 1.19.98.77.21 1.45-.13 2.07-1.05.14-.2.39-.27.61-.18.22.1.34.33.29.57C11.55 13.35 9.55 14 8 14m-5.44-4c.25 0 .49.04.7.1.71.2 1.16.71 1.64 1.26C5.63 12.18 6.37 13 8 13c1.12 0 1.94-.37 2.51-1.14-.56.2-1.09.16-1.51.04-.72-.2-1.19-.74-1.65-1.26C6.62 9.82 5.88 9 4.25 9c-1.12 0-1.94.37-2.51 1.14.28-.1.56-.14.82-.14m9.19-2C9.67 8 8.66 6.87 7.93 6.04c-.44-.49-.76-.86-1.19-.98-.77-.21-1.45.13-2.07 1.05-.13.2-.39.27-.61.18a.505.505 0 0 1-.29-.57C4.46 2.65 6.46 2 8.01 2c2.06 0 3.02 1.07 3.8 1.93.44.5.79.89 1.2 1.01.49.13 1.25.17 2.08-1.05.14-.2.4-.27.61-.18.22.1.34.33.29.57C15.3 7.35 13.3 8 11.75 8M6.3 4c.25 0 .49.04.7.1.72.2 1.19.74 1.65 1.26.73.82 1.47 1.64 3.1 1.64 1.12 0 1.94-.37 2.51-1.14-.56.2-1.09.16-1.52.05-.71-.2-1.16-.71-1.64-1.26-.75-.83-1.48-1.64-3.1-1.64-1.12 0-1.94.37-2.51 1.14.28-.1.56-.14.81-.14Z" style="fill:#161a1c"/></svg>