<svg xmlns="http://www.w3.org/2000/svg" id="CSS" viewBox="0 0 16 16"><defs><style>.cls-1{fill:#161a1c}</style></defs><path d="M12 15H4c-1.65 0-3-1.35-3-3V4c0-1.65 1.35-3 3-3h8c1.65 0 3 1.35 3 3v8c0 1.65-1.35 3-3 3M4 2c-1.1 0-2 .9-2 2v8c0 1.1.9 2 2 2h8c1.1 0 2-.9 2-2V4c0-1.1-.9-2-2-2z" class="cls-1"/><path d="M11.3 13h-.6c-.94 0-1.7-.79-1.7-1.75 0-.28.22-.5.5-.5s.5.22.5.5c0 .41.31.75.7.75h.6c.39 0 .7-.34.7-.75s-.31-.75-.7-.75h-.6c-.94 0-1.7-.79-1.7-1.75S9.76 7 10.7 7h.6c.94 0 1.7.79 1.7 1.75 0 .28-.22.5-.5.5s-.5-.22-.5-.5c0-.41-.31-.75-.7-.75h-.6c-.39 0-.7.34-.7.75s.31.75.7.75h.6c.94 0 1.7.79 1.7 1.75S12.24 13 11.3 13m-4.8 0c-.28 0-.5-.22-.5-.5V8H5c-.28 0-.5-.22-.5-.5S4.72 7 5 7h3c.28 0 .5.22.5.5S8.28 8 8 8H7v4.5c0 .28-.22.5-.5.5" class="cls-1"/></svg>