<svg xmlns="http://www.w3.org/2000/svg" viewBox="0 0 16 16"><path d="M14.9 4.19a.51.51 0 0 0-.53-.18l-2.44.7.52-.98a.504.504 0 0 0-.57-.72l-1.02.26L11.96.7a.503.503 0 0 0-.55-.69l-5.5 1c-.22.04-.39.22-.41.44l-.36 3.57-3.5-1c-.2-.06-.41.01-.53.18-.12.16-.14.38-.04.56l6.5 11c.09.15.25.25.43.25s.34-.09.43-.25l6.5-11c.1-.18.09-.4-.04-.56ZM6.46 1.92l4.21-.77L9.54 3.8a.498.498 0 0 0 .58.68l.91-.23L8.5 8.99v-1c0-.16-.08-.31-.21-.41A.5.5 0 0 0 8 7.49c-.05 0-.11 0-.16.03l-.55.18.68-2.05c.06-.19 0-.4-.15-.54a.5.5 0 0 0-.55-.07l-1.19.59.37-3.72ZM8 14.52 2.57 5.33l2.29.66c.06.02.13.02.19.01L5 6.46c-.02.18.06.36.21.46s.35.12.51.04l.92-.46-.62 1.85c-.06.18-.01.38.12.51s.33.18.51.12l.84-.28v2.31c0 .23.16.43.38.49.04 0 .08.01.12.01.18 0 .35-.1.44-.26l2.82-5.29 2.17-.62-5.43 9.19Z" style="fill:#161a1c"/></svg>