<svg xmlns="http://www.w3.org/2000/svg" viewBox="0 0 16 16"><path d="M1.5 15c-.15 0-.3-.07-.39-.19a.51.51 0 0 1 0-.62L7.48 6H4.5c-.19 0-.36-.11-.45-.28s-.07-.37.05-.52l1.5-2c.09-.13.24-.2.4-.2h3.89l4.4-1.96a.51.51 0 0 1 .6.15c.14.18.14.43 0 .62L8.52 10h2.98c.19 0 .36.11.45.28s.07.37-.05.52l-1.5 2a.48.48 0 0 1-.4.2H6.11l-4.4 1.96c-.07.03-.13.04-.2.04Zm4-10h3c.19 0 .37.11.45.28s.06.38-.05.53l-5.78 7.43 2.68-1.19c.06-.03.13-.04.2-.04h3.75l.75-1h-3c-.19 0-.37-.11-.45-.28s-.06-.38.05-.53l5.78-7.43-2.68 1.19c-.06.03-.13.04-.2.04H6.25z" style="fill:#161a1c"/></svg>